<?xml version="1.0" standalone="no"?>
<!DOCTYPE svg PUBLIC "-//W3C//DTD SVG 20010904//EN"
 "http://www.w3.org/TR/2001/REC-SVG-20010904/DTD/svg10.dtd">
<svg version="1.0" xmlns="http://www.w3.org/2000/svg"
 width="1024.000000pt" height="1024.000000pt" viewBox="0 0 1024.000000 1024.000000"
 preserveAspectRatio="xMidYMid meet">
<metadata>
Created by potrace 1.14, written by Peter Selinger 2001-2017
</metadata>
<g transform="translate(0.000000,1024.000000) scale(0.100000,-0.100000)"
fill="#000000" stroke="none">
<path d="M2525 10230 c-587 -16 -933 -86 -1277 -255 -638 -315 -1059 -890
-1183 -1612 -62 -363 -68 -735 -62 -3578 5 -2353 7 -2491 43 -2770 89 -714
419 -1262 980 -1629 329 -214 691 -325 1204 -368 227 -19 5589 -19 5800 0 306
27 487 62 703 133 450 149 844 449 1103 839 232 348 338 684 386 1220 19 212
19 5608 0 5820 -37 409 -104 679 -237 955 -248 515 -693 910 -1230 1093 -291
100 -552 137 -1065 152 -369 11 -4767 10 -5165 0z m3065 -1115 c0 -8 -2 -15
-4 -15 -2 0 -11 -3 -19 -6 -12 -4 -14 0 -10 15 6 24 33 29 33 6z m810 -185 c0
-13 -7 -20 -20 -20 -13 0 -20 7 -20 20 0 13 7 20 20 20 13 0 20 -7 20 -20z
m-1626 -70 c-16 -47 -12 -95 12 -142 l14 -27 -35 15 c-59 24 -107 18 -166 -21
-28 -20 -56 -38 -60 -41 -5 -3 10 22 32 54 46 67 53 116 24 173 -16 31 -16 32
1 24 54 -22 89 -23 138 -6 28 9 52 16 53 16 1 0 -5 -21 -13 -45z m538 -1 c28
10 29 10 23 -22 -4 -18 -2 -44 4 -58 10 -27 10 -27 -24 -16 -30 9 -39 7 -76
-18 l-42 -27 23 31 c24 34 29 62 16 99 -7 21 -6 21 20 12 18 -7 37 -8 56 -1z
m-1280 -126 c-52 -104 -53 -193 -4 -298 l29 -62 -61 25 c-33 14 -85 27 -113
30 -65 6 -126 -22 -243 -109 l-80 -59 45 61 c60 82 106 164 116 207 10 45 -3
109 -37 175 -13 27 -24 50 -24 52 0 2 26 -8 58 -23 84 -39 175 -38 257 4 78
40 79 40 57 -3z m1846 -84 c33 2 36 -1 23 -34 -5 -11 -4 -33 0 -48 7 -25 6
-28 -9 -22 -37 16 -58 15 -94 -3 l-36 -19 25 38 c19 29 24 46 19 70 -5 28 -4
30 17 23 12 -4 37 -6 55 -5z m922 -209 c0 -13 -7 -20 -19 -20 -14 0 -18 5 -14
20 3 11 12 20 19 20 8 0 14 -9 14 -20z m-356 -139 c-3 -21 -1 -47 5 -59 10
-19 8 -20 -29 -15 -29 4 -48 0 -77 -18 l-38 -23 24 33 c18 25 22 41 18 71 l-5
38 33 -5 c18 -3 41 0 51 6 11 6 20 11 22 11 1 0 -1 -17 -4 -39z m493 -306
c542 -71 901 -308 1095 -721 45 -96 45 -96 79 5 31 91 23 146 -30 223 -28 41
-36 58 -24 53 10 -3 42 -9 70 -12 63 -7 123 13 188 62 l43 33 -9 -31 c-22 -77
-6 -160 45 -235 l33 -50 -76 5 c-60 4 -84 2 -109 -11 -40 -21 -94 -67 -131
-115 l-30 -38 29 -90 c190 -590 102 -1360 -226 -1993 -140 -269 -309 -491
-548 -719 -83 -80 -267 -261 -409 -404 l-258 -259 35 -25 c44 -29 80 -97 96
-181 17 -85 7 -299 -20 -427 -51 -244 -180 -553 -317 -758 -71 -107 -248 -320
-334 -404 -356 -342 -728 -523 -1073 -523 -113 0 -182 19 -221 60 -26 27 -30
39 -30 89 1 90 63 184 201 301 136 116 307 332 336 424 42 131 93 416 76 416
-3 0 -29 -8 -59 -19 -143 -49 -326 -52 -424 -7 -28 13 -100 51 -160 86 -116
67 -322 170 -341 170 -7 0 -14 -36 -18 -92 -10 -137 -34 -256 -64 -318 -50
-101 -162 -153 -332 -154 l-95 -1 -11 -85 c-50 -375 -148 -583 -386 -824 -108
-110 -108 -109 -147 -30 -18 35 -25 71 -30 146 l-6 100 -40 -30 c-65 -47 -232
-146 -331 -195 -225 -113 -469 -194 -699 -233 -125 -21 -500 -24 -660 -5 -169
19 -529 83 -543 95 -1 2 2 77 8 168 39 655 203 1165 514 1602 84 118 228 267
310 322 l59 39 -64 8 c-35 4 -87 19 -116 32 -48 22 -143 98 -143 115 0 11 150
100 260 155 168 84 285 115 433 115 79 0 248 -20 298 -35 14 -5 17 8 22 82 11
157 49 242 127 280 48 23 159 49 253 59 31 4 57 10 57 13 0 3 -21 60 -46 126
-25 66 -77 210 -116 320 -38 110 -96 256 -129 324 -32 68 -59 129 -59 135 0
19 75 170 142 283 l61 105 -23 56 c-34 84 -58 121 -92 138 -27 14 -37 14 -111
-1 -298 -60 -588 -248 -771 -498 -100 -137 -222 -244 -315 -275 -69 -24 -147
-11 -208 34 -166 124 -88 477 201 909 174 258 401 507 569 623 297 204 809
345 1257 345 138 0 205 -4 265 -17 100 -22 179 -59 207 -97 l21 -28 171 162
c262 250 523 485 609 548 398 296 976 507 1577 578 131 15 507 13 637 -4z
m-1820 -95 c-8 -22 -8 -38 0 -59 l10 -29 -38 5 c-28 4 -47 0 -76 -18 l-38 -23
21 29 c28 40 32 55 23 88 -8 27 -7 28 26 21 18 -3 42 -1 52 5 28 16 32 13 20
-19z m-1072 -107 c-54 -129 -61 -173 -40 -255 9 -34 25 -78 36 -97 11 -18 18
-35 16 -37 -1 -2 -31 8 -65 22 -103 41 -150 42 -227 5 -36 -18 -101 -59 -146
-93 l-82 -60 45 59 c63 83 114 171 127 220 14 50 2 114 -35 186 -13 28 -23 52
-20 54 2 2 21 -5 42 -16 53 -29 134 -45 185 -37 24 4 69 20 99 35 67 34 74 36
65 14z m4443 -1078 c108 -54 204 -54 307 0 51 27 53 25 26 -19 -11 -17 -27
-58 -36 -90 -21 -73 -16 -141 18 -225 14 -34 24 -61 22 -61 -1 0 -33 14 -71
32 -128 58 -197 45 -373 -75 -54 -36 -70 -43 -55 -25 141 180 169 234 162 311
-3 29 -16 80 -30 115 -14 34 -24 62 -23 62 2 0 26 -11 53 -25z m-193 -1064
c17 0 48 6 70 14 22 8 41 15 42 15 1 0 -9 -22 -22 -49 -27 -52 -33 -120 -15
-167 13 -34 8 -39 -22 -21 -12 9 -41 21 -63 27 -35 10 -47 9 -92 -9 -29 -11
-71 -32 -94 -46 l-41 -26 54 63 c70 82 83 114 70 170 -5 24 -13 51 -17 61 -6
15 0 14 46 -8 30 -14 68 -25 84 -24z m-618 -1106 c0 -8 -4 -15 -8 -15 -4 0
-14 -3 -22 -6 -12 -4 -14 0 -10 15 6 24 40 29 40 6z"/>
</g>
</svg>
